<?xml version="1.0" encoding="utf-8"?>
<!-- Generator: Adobe Illustrator 16.0.0, SVG Export Plug-In . SVG Version: 6.00 Build 0)  -->
<!DOCTYPE svg PUBLIC "-//W3C//DTD SVG 1.1//EN" "http://www.w3.org/Graphics/SVG/1.1/DTD/svg11.dtd">
<svg version="1.1" id="Layer_1" xmlns="http://www.w3.org/2000/svg" xmlns:xlink="http://www.w3.org/1999/xlink" x="0px" y="0px"
	 width="100px" height="30px" viewBox="0 0 100 30" enable-background="new 0 0 100 30" xml:space="preserve">
<g>
	<path fill="#0B0909" d="M3.298,10.876c0.193,0.046,0.601,0.245,0.803,0.336c0.239,0.108,0.525,0.268,0.807,0.334
		c0,1.184,0.003,2.37,0,3.555c-0.005,1.345,0.328,1.855,1.057,2.496l0.476,0.396c0.675,0.549,3.215,2.338,3.898,2.338
		c0.565,0,2.297-1.174,2.868-1.558l0.999-0.743c0.111-0.096,0.127-0.123,0.25-0.22c0.133-0.104,0.133-0.092,0.257-0.212
		c0.757-0.729,1.059-1.036,1.055-2.498c-0.002-1.185,0-2.369,0-3.554c0.279-0.065,0.567-0.227,0.807-0.334
		c0.202-0.091,0.609-0.292,0.803-0.336c0,0.812,0.069,6.839-0.037,7.34c-0.177,0.84-0.956,1.456-1.668,2.021l-2.157,1.596
		c-0.401,0.269-2.828,1.785-3.179,1.785c-0.578,0-3.782-2.203-4.578-2.799c-0.25-0.188-0.429-0.337-0.672-0.535
		c-2.029-1.637-1.79-1.563-1.79-4.448C3.298,14.183,3.298,12.53,3.298,10.876z M6.449,12.283l1.876,0.807
		c0.296,0.133,0.604,0.285,0.921,0.419c0.334,0.144,0.613,0.303,0.958,0.383v4.761c-0.651-0.15-2.483-1.525-3.038-1.99
		c-0.77-0.648-0.717-0.504-0.717-1.831C6.449,13.982,6.449,13.134,6.449,12.283z M10.338,6.384l6.101,3.284l-4.559,2.011
		c-0.238,0.105-1.381,0.655-1.533,0.651c-0.263-0.007-5.681-2.562-6.109-2.663L10.338,6.384z M1.823,9.668v8.382
		c0,0.813,0.409,1.48,0.843,2.041c0.246,0.316,1.184,1.105,1.551,1.398c0.533,0.428,1.677,1.31,2.279,1.676
		c0.704,0.434,3.266,2.059,3.843,2.059c0.905,0,5.053-2.8,6.087-3.703c1.037-0.904,2.429-1.773,2.429-3.538V9.669
		c0-0.512-0.679-0.81-1.295-1.118l-4.917-2.659C9.732,4.463,11.117,4.257,7.57,6.16L3.213,8.507C2.992,8.631,2.897,8.7,2.653,8.82
		C2.307,8.988,1.823,9.204,1.823,9.668z"/>
	<path fill="#0B0909" d="M46.419,17.553c-0.682,0-1.471-0.325-1.471-0.979V14.05c0-1.281,2.872-1.445,2.872,0.489v1.541
		C47.82,16.85,47.176,17.553,46.419,17.553z M44.948,12.79c0-1.246,0.324-1.049-1.61-1.049c-0.162,0-0.21,0.049-0.21,0.208v9.594
		h1.82v-3.709c0.011,0.014,0.024,0.018,0.03,0.039c0.004,0.022,0.023,0.032,0.029,0.04c0.588,0.854,0.962,1.109,2.11,1.109
		c3.417,0,3.653-7.423-0.209-7.423c-0.522,0-0.904,0.124-1.242,0.369c-0.167,0.121-0.286,0.19-0.413,0.357
		c-0.028,0.039-0.106,0.165-0.137,0.214L44.948,12.79z"/>
	<path fill="#0B0909" d="M51.111,18.603c0,0.369,0.793,0.211,1.819,0.211v-3.644h3.711v-1.68h-3.711v-2.241h4.271v-1.68h-6.093
		L51.111,18.603z"/>
	<path fill="#0B0909" d="M38.437,17.691c-1.114,0-1.26-0.152-1.26-1.12c0-0.926,1.594-0.703,2.38-0.703
		C39.557,16.53,39.742,17.691,38.437,17.691z M35.635,13.07c0.381,0.101,0.64,0.713,1.12,0.84c0.239-0.892,2.802-1.517,2.802,0.351
		v0.491c-1.215,0-2.364-0.132-3.36,0.492c-1.177,0.732-1.551,3.78,1.61,3.78c1.517,0,1.719-1.153,1.962-1.329
		c0.028,1.261,1.329,1.191,2.099,1.191c0.33,0,0.21-0.431,0.21-1.26c0-0.278-0.199-0.21-0.7-0.21c0-1.107,0.172-3.77-0.351-4.62
		c-0.052-0.087-0.253-0.36-0.332-0.439C39.353,11.011,35.981,11.583,35.635,13.07z"/>
	<path fill="#0B0909" d="M94.946,12.86c1.004,0,1.328,0.821,1.328,1.68h-2.799C93.476,13.584,94.058,12.86,94.946,12.86z
		 M91.656,14.82c0,1.33,0.002,2.047,0.896,3.163c0.877,1.089,2.895,1.216,4.241,0.574c0.283-0.139,0.388-0.208,0.605-0.373
		c0.262-0.197,0.331-0.265,0.487-0.562c-0.34-0.51-0.765-0.772-0.838-1.051c-0.412,0.111-0.643,0.912-1.611,0.912
		c-0.963,0-1.961-0.097-1.961-1.754h4.484c0.283,0,0.208-0.218,0.208-0.768c0-1.887-1.214-3.431-3.083-3.431
		c-1.17,0-1.801,0.196-2.541,0.961C92.079,12.975,91.656,13.895,91.656,14.82z"/>
	<path fill="#0B0909" d="M29.963,14.33c0-0.688,0.568-1.33,1.26-1.33c1.073,0,1.541,0.394,1.541,1.68h-2.801L29.963,14.33
		L29.963,14.33z M28.073,15.31c0,2.035,1.181,3.711,3.153,3.711c1.389,0,2.503-0.365,3.152-1.328
		c-0.293-0.338-0.661-0.682-0.911-1.051c-0.335,0.225-0.792,1.022-1.936,0.947c-1.188-0.076-1.566-0.7-1.566-1.791h4.482
		c0.115,0,0.21-0.041,0.21-0.141c0-1.547-0.387-3.039-1.683-3.708c-0.859-0.444-2.174-0.467-3.059-0.051
		C28.688,12.477,28.073,13.782,28.073,15.31z"/>
	<path fill="#0B0909" d="M73.029,17.621c-0.394,0-0.896,0.02-1.104-0.368c-0.127-0.237-0.09-0.415-0.09-0.754
		c0-0.906,1.566-0.771,2.382-0.771c0,0.636,0.101,1.27-0.349,1.617C73.712,17.471,73.327,17.621,73.029,17.621z M70.298,12.999
		c0.304,0.081,0.471,0.454,1.051,0.841c0.6-0.898,1.087-0.841,1.96-0.841c0.883,0,0.912,1.054,0.912,1.681
		c-1.069,0-2.546-0.129-3.374,0.478c-1.44,1.064-1.165,3.793,1.552,3.793c0.853,0,1.83-0.569,1.894-1.329
		c0.347,0.256,0.179,1.192,1.54,1.192h0.84v-1.471h-0.699V13.77c0-1.407-1.306-2.241-2.66-2.241c-1.059,0-1.84,0.083-2.611,0.82
		C70.52,12.518,70.322,12.708,70.298,12.999z"/>
	<path fill="#0B0909" d="M79.611,12.718c0-1.262,0.361-1.05-1.821-1.05v6.933c0,0.357,0.645,0.21,1.611,0.21
		c0.349,0,0.21-0.939,0.21-1.61c0-0.562-0.067-3.249,0.075-3.563c0.194-0.417,0.714-0.636,1.326-0.636
		c1.23,0,1.051,1.244,1.051,2.45l-0.002,2.665c-0.013,0.851-0.239,0.698,1.611,0.698c0.161,0,0.21-0.049,0.21-0.209v-4.341
		c0-1.48-0.714-2.731-2.17-2.731c-0.721,0-1.353,0.153-1.783,0.739L79.611,12.718z"/>
	<path fill="#0B0909" d="M64.627,12.718c0-1.262,0.359-1.05-1.819-1.05v6.933c0,0.357,0.641,0.21,1.609,0.21
		c0.347,0,0.21-0.939,0.21-1.61c0-0.552-0.082-3.277,0.067-3.573C64.898,13.224,65.425,13,66.026,13c1.216,0,1.051,1.246,1.051,2.45
		l-0.002,2.666c-0.013,0.85-0.239,0.698,1.613,0.698c0.161,0,0.208-0.05,0.208-0.211v-4.201c0-3.538-3.151-3.247-3.964-2.144
		l-0.22,0.341C64.64,12.708,64.69,12.645,64.627,12.718z"/>
	<path fill="#0B0909" d="M21.7,9.849v9.034h5.532v-1.682h-3.709V9.639h-1.611C21.75,9.639,21.7,9.687,21.7,9.849z"/>
	<path fill="#0B0909" d="M85.003,15.24c0,0.547,0.081,1.041,0.216,1.462c0.188,0.582,0.247,0.696,0.592,1.16
		c0.928,1.247,3.117,1.428,4.375,0.532c0.318-0.229,0.897-0.89,0.91-1.403c-0.449-0.105-0.896-0.524-1.332-0.561
		c-0.447,0.85-0.653,1.053-1.609,1.053c-1.528,0-1.259-1.965-1.259-3.012c0-0.432,0.116-0.702,0.29-0.97
		c0.444-0.685,1.548-0.606,2.023-0.224c0.251,0.204,0.275,0.409,0.416,0.704c0.242-0.058,0.518-0.194,0.748-0.303
		c0.268-0.127,0.479-0.198,0.725-0.327c-0.59-1.228-1.186-1.82-2.941-1.82C86.053,11.53,85.003,13.22,85.003,15.24z"/>
	<path fill="#0B0909" d="M57.622,13.35h1.681v5.252c0,0.357,0.643,0.211,1.609,0.211c0.163,0,0.211-0.051,0.211-0.211v-6.934h-3.501
		V13.35L57.622,13.35z"/>
	<path fill="#0B0909" d="M59.164,9.498c0,0.708,0.092,1.226,1.051,1.226c1.461,0.001,1.367-2.066,0.071-2.066
		C59.681,8.658,59.164,8.914,59.164,9.498z"/>
</g>
</svg>
